<svg width="210" height="43" viewBox="0 0 210 43" fill="none" xmlns="http://www.w3.org/2000/svg">
<rect y="20.8003" width="18.2001" height="18.2001" fill="#6EE7B7"/>
<rect x="16.7998" y="4" width="18.2001" height="18.2001" fill="#6EE7B7"/>
<path d="M60.256 35C59.248 35 58.744 34.496 58.744 33.488V12.104C58.744 11.096 59.248 10.592 60.256 10.592H68.932C72.064 10.592 74.368 11.336 75.844 12.824C77.332 14.3 78.076 16.604 78.076 19.736V25.856C78.076 28.988 77.338 31.298 75.862 32.786C74.398 34.262 72.088 35 68.932 35H60.256ZM61.768 31.976H68.932C70.468 31.976 71.68 31.79 72.568 31.418C73.468 31.034 74.104 30.398 74.476 29.51C74.86 28.61 75.052 27.392 75.052 25.856V19.736C75.052 18.212 74.86 17.006 74.476 16.118C74.104 15.218 73.468 14.576 72.568 14.192C71.68 13.808 70.468 13.616 68.932 13.616H61.768V31.976ZM87.4253 35C85.4093 35 83.9093 34.508 82.9253 33.524C81.9413 32.54 81.4493 31.04 81.4493 29.024C81.4493 27.008 81.9353 25.508 82.9073 24.524C83.8913 23.54 85.3973 23.048 87.4253 23.048H95.0393C94.9673 21.788 94.6373 20.93 94.0493 20.474C93.4613 20.006 92.4533 19.772 91.0253 19.772H88.9373C87.7373 19.772 86.8433 19.856 86.2553 20.024C85.6673 20.18 85.2533 20.468 85.0133 20.888C84.7973 21.392 84.5753 21.74 84.3473 21.932C84.1193 22.124 83.7773 22.22 83.3213 22.22C82.8173 22.22 82.4213 22.082 82.1333 21.806C81.8453 21.518 81.7613 21.14 81.8813 20.672C82.2413 19.316 82.9913 18.326 84.1313 17.702C85.2833 17.066 86.8853 16.748 88.9373 16.748H91.0253C93.4253 16.748 95.2013 17.324 96.3533 18.476C97.5053 19.628 98.0813 21.404 98.0813 23.804V33.488C98.0813 34.496 97.5773 35 96.5693 35C95.5613 35 95.0573 34.496 95.0573 33.488V32.678C93.7733 34.226 91.9013 35 89.4413 35H87.4253ZM87.4253 31.976H89.4413C90.3293 31.976 91.1633 31.898 91.9433 31.742C92.7233 31.574 93.3893 31.274 93.9413 30.842C94.5053 30.41 94.8773 29.792 95.0573 28.988V26.072H87.4253C86.2373 26.072 85.4453 26.27 85.0493 26.666C84.6653 27.062 84.4733 27.848 84.4733 29.024C84.4733 30.212 84.6653 31.004 85.0493 31.4C85.4453 31.784 86.2373 31.976 87.4253 31.976ZM110.047 35C107.671 35 105.919 34.436 104.791 33.308C103.663 32.18 103.099 30.44 103.099 28.088V19.772H101.335C100.327 19.772 99.8234 19.268 99.8234 18.26C99.8234 17.252 100.327 16.748 101.335 16.748H103.099V14.12C103.099 13.112 103.603 12.608 104.611 12.608C105.619 12.608 106.123 13.112 106.123 14.12V16.748H110.263C111.271 16.748 111.775 17.252 111.775 18.26C111.775 19.268 111.271 19.772 110.263 19.772H106.123V28.088C106.123 29.612 106.399 30.644 106.951 31.184C107.503 31.712 108.535 31.976 110.047 31.976C110.515 31.976 110.881 32.096 111.145 32.336C111.421 32.576 111.559 32.96 111.559 33.488C111.559 34.496 111.055 35 110.047 35ZM119.072 35C117.056 35 115.556 34.508 114.572 33.524C113.588 32.54 113.096 31.04 113.096 29.024C113.096 27.008 113.582 25.508 114.554 24.524C115.538 23.54 117.044 23.048 119.072 23.048H126.686C126.614 21.788 126.284 20.93 125.696 20.474C125.108 20.006 124.1 19.772 122.672 19.772H120.584C119.384 19.772 118.49 19.856 117.902 20.024C117.314 20.18 116.9 20.468 116.66 20.888C116.444 21.392 116.222 21.74 115.994 21.932C115.766 22.124 115.424 22.22 114.968 22.22C114.464 22.22 114.068 22.082 113.78 21.806C113.492 21.518 113.408 21.14 113.528 20.672C113.888 19.316 114.638 18.326 115.778 17.702C116.93 17.066 118.532 16.748 120.584 16.748H122.672C125.072 16.748 126.848 17.324 128 18.476C129.152 19.628 129.728 21.404 129.728 23.804V33.488C129.728 34.496 129.224 35 128.216 35C127.208 35 126.704 34.496 126.704 33.488V32.678C125.42 34.226 123.548 35 121.088 35H119.072ZM119.072 31.976H121.088C121.976 31.976 122.81 31.898 123.59 31.742C124.37 31.574 125.036 31.274 125.588 30.842C126.152 30.41 126.524 29.792 126.704 28.988V26.072H119.072C117.884 26.072 117.092 26.27 116.696 26.666C116.312 27.062 116.12 27.848 116.12 29.024C116.12 30.212 116.312 31.004 116.696 31.4C117.092 31.784 117.884 31.976 119.072 31.976ZM139.228 35C138.568 35 138.1 34.568 137.824 33.704L131.164 12.608C131.02 12.152 131.086 11.696 131.362 11.24C131.65 10.784 132.064 10.556 132.604 10.556C132.892 10.556 133.168 10.652 133.432 10.844C133.696 11.024 133.888 11.312 134.008 11.708L139.876 30.392H139.084L144.664 11.888C144.796 11.456 145.018 11.132 145.33 10.916C145.654 10.7 145.984 10.592 146.32 10.592C146.68 10.592 147.028 10.7 147.364 10.916C147.7 11.132 147.928 11.456 148.048 11.888L153.628 30.392H152.836L158.704 11.708C158.836 11.312 159.022 11.03 159.262 10.862C159.514 10.682 159.784 10.592 160.072 10.592C160.6 10.592 161.02 10.796 161.332 11.204C161.644 11.612 161.716 12.08 161.548 12.608L154.888 33.704C154.6 34.568 154.072 35 153.304 35H153.232C152.428 35 151.9 34.568 151.648 33.704L145.852 14.948H146.644L140.812 33.704C140.692 34.136 140.512 34.46 140.272 34.676C140.044 34.892 139.696 35 139.228 35ZM164.356 13.796C163.216 13.796 162.646 13.22 162.646 12.068V11.006C162.646 9.878 163.216 9.314 164.356 9.314H165.4C166.492 9.314 167.038 9.878 167.038 11.006V12.068C167.038 13.22 166.492 13.796 165.4 13.796H164.356ZM164.86 35C163.852 35 163.348 34.496 163.348 33.488V18.26C163.348 17.252 163.852 16.748 164.86 16.748C165.868 16.748 166.372 17.252 166.372 18.26V33.488C166.372 34.496 165.868 35 164.86 35ZM175.264 35C173.74 35 172.534 34.688 171.646 34.064C170.758 33.428 170.188 32.48 169.936 31.22C169.852 30.716 169.948 30.32 170.224 30.032C170.512 29.744 170.908 29.6 171.412 29.6C171.904 29.6 172.258 29.726 172.474 29.978C172.702 30.218 172.888 30.584 173.032 31.076C173.176 31.436 173.416 31.676 173.752 31.796C174.1 31.916 174.604 31.976 175.264 31.976H181.168C182.104 31.976 182.734 31.826 183.058 31.526C183.382 31.214 183.544 30.572 183.544 29.6C183.544 28.64 183.382 28.004 183.058 27.692C182.734 27.38 182.104 27.224 181.168 27.224H175.372C173.644 27.224 172.342 26.786 171.466 25.91C170.59 25.034 170.152 23.732 170.152 22.004C170.152 20.24 170.578 18.926 171.43 18.062C172.294 17.186 173.608 16.748 175.372 16.748H180.988C183.808 16.748 185.476 17.936 185.992 20.312C186.088 20.816 185.992 21.206 185.704 21.482C185.416 21.758 185.02 21.896 184.516 21.896C184.048 21.896 183.7 21.776 183.472 21.536C183.244 21.284 183.064 20.936 182.932 20.492C182.788 20.204 182.566 20.012 182.266 19.916C181.978 19.82 181.552 19.772 180.988 19.772H175.372C174.46 19.772 173.866 19.91 173.59 20.186C173.314 20.462 173.176 21.068 173.176 22.004C173.176 22.868 173.32 23.45 173.608 23.75C173.908 24.05 174.496 24.2 175.372 24.2H181.168C182.968 24.2 184.318 24.65 185.218 25.55C186.118 26.45 186.568 27.8 186.568 29.6C186.568 31.412 186.118 32.768 185.218 33.668C184.318 34.556 182.968 35 181.168 35H175.264ZM192.267 27.116V27.98C192.267 29.528 192.549 30.584 193.113 31.148C193.677 31.7 194.739 31.976 196.299 31.976H199.251C200.475 31.976 201.381 31.862 201.969 31.634C202.557 31.406 202.947 31.004 203.139 30.428C203.271 29.972 203.451 29.624 203.679 29.384C203.919 29.144 204.279 29.024 204.759 29.024C205.263 29.024 205.647 29.156 205.911 29.42C206.175 29.684 206.259 30.068 206.163 30.572C205.899 32.06 205.191 33.17 204.039 33.902C202.887 34.634 201.291 35 199.251 35H196.299C193.911 35 192.135 34.424 190.971 33.272C189.819 32.12 189.243 30.356 189.243 27.98V23.804C189.243 21.368 189.819 19.58 190.971 18.44C192.135 17.288 193.911 16.724 196.299 16.748H199.251C201.651 16.748 203.427 17.324 204.579 18.476C205.731 19.616 206.307 21.392 206.307 23.804V25.604C206.307 26.612 205.803 27.116 204.795 27.116H192.267ZM196.299 19.772C194.739 19.748 193.677 20.018 193.113 20.582C192.549 21.146 192.267 22.22 192.267 23.804V24.092H203.283V23.804C203.283 22.232 203.001 21.17 202.437 20.618C201.885 20.054 200.823 19.772 199.251 19.772H196.299Z" fill="white"/>
</svg>
